# xmcd
#
# Track frame offsets:
# 150
# 14195
# 31163
# 45136
# 56615
# 69684
# 80853
# 95334
# 108187
# 118436
# 137243
# 156779
# 173921
# 187867
# 206515
# 218690
# 239009
# 254517
# 271471
# 292045
# 302733
#
# Disc length: 4177 seconds
#
#
# Revision: 1
# Processed by: cddbd v1.5.1PL2 Copyright (c) Steve Scherf et al.
# Submitted via: FreeRIP 2.944 
#
DISCID=3b104f15
DTITLE=Various Artist - Nejkrasnejsi Country Dueta 2.
DYEAR=2004
DGENRE=Country
TTITLE0=Michal Tucny and Pavlina Jisova - Sundej z hodin zavazi
TTITLE1=Pavel Bobek and Robert Krestan - Musim se sam sobe smat
TTITLE2=Waldemar Matuska and Olga Blechova - No lidi, to byste zasli
TTITLE3=Nada Urbankova and Jiri Grossmann - Jackson
TTITLE4=Karel Cernoch and Marie Rottrova - I blazen snad touzi
TTITLE5=Mirek Hoffmann and Tomas Linka - Holky jdou
TTITLE6=Pavel Brumer and Hana Mlada - Mam te rad kdyz spis
TTITLE7=Michal Tucny and Zdenek Rytir - Vcera jsem te nevidel
TTITLE8=Pavel Bobek and Yvonne Prenosilova - Je mi lito vsech andelu
TTITLE9=Petr Spaleny and Zdenek Rytir - Ja ho jen od videni znam
TTITLE10=Milan Drobny and Milan Chladil - Po pulnoci
TTITLE11=Karel Kahovec and Vaclav Machacek and Jiri Brabec - Muj vlak vysnenej
TTITLE12=Waldemar Matuska and Olga Blechova - Jen se hadej
TTITLE13=Michal Tucny and Rattlesnake Annie - Dam sbohem rekam
TTITLE14=Milan Dufek and Jan Vancura - Jesli se chces stat mou zenou
TTITLE15=Pavel Bobek and Marie Rottrova - Znas me nejlip
TTITLE16=Mirek Hoffmann and Tomas Linka - Posledni sklenka
TTITLE17=Karel Zich and Sarka Rezkova - Klice k zazrakum
TTITLE18=Pavel Brumer and Jindra Malik - Cesty domu
TTITLE19=Michal Tucny and Tomas Linka - Uz te vlak privazi
TTITLE20=Waldemar Matuska and Olga Blechova - Tak pani, damy - a balim
EXTD=
EXTT0=
EXTT1=
EXTT2=
EXTT3=
EXTT4=
EXTT5=
EXTT6=
EXTT7=
EXTT8=
EXTT9=
EXTT10=
EXTT11=
EXTT12=
EXTT13=
EXTT14=
EXTT15=
EXTT16=
EXTT17=
EXTT18=
EXTT19=
EXTT20=
PLAYORDER=
